<?xml version="1.0" encoding="utf-8"?>
<!-- Generator: Adobe Illustrator 14.0.0, SVG Export Plug-In . SVG Version: 6.00 Build 43363)  -->
<!DOCTYPE svg PUBLIC "-//W3C//DTD SVG 1.1//EN" "http://www.w3.org/Graphics/SVG/1.1/DTD/svg11.dtd">
<svg version="1.1" id="Layer_1" xmlns="http://www.w3.org/2000/svg" xmlns:xlink="http://www.w3.org/1999/xlink" x="0px" y="0px"
	 width="30px" height="30px" viewBox="0 0 30 30" enable-background="new 0 0 30 30" xml:space="preserve">
<g>
	<path d="M16.711,1.358c-0.268,0.254-0.24,6.947,0.026,7.16c0.127,0.106,0.729,0.146,1.78,0.121l1.598-0.041V4.932V1.264
		l-1.612-0.039C17.368,1.199,16.836,1.239,16.711,1.358z"/>
	<path d="M29.999,15.973V3.266l-1.654-1.561c-1.892-1.76-1.892-1.76-4.095-1.68l-1.19,0.041l-0.041,4.918
		c-0.015,3.361-0.087,4.975-0.183,5.107c-0.128,0.133-1.586,0.174-7.71,0.174c-6.658,0-7.555-0.026-7.752-0.213
		C7.177,9.879,7.15,9.225,7.15,4.919V0L4.598,0.014C3.182,0.026,1.852,0.067,1.612,0.12C0.94,0.281,0.575,0.559,0.281,1.147
		C0,1.667,0,2.014,0,15.041c0,14.625-0.043,13.893,0.828,14.6L1.29,30h13.681c13.331,0,13.709-0.014,14.144-0.268
		C30.055,29.199,29.999,29.998,29.999,15.973z M26.326,27.172c-0.127,0.119-2.819,0.16-11.284,0.16c-10.836,0-11.116,0-11.256-0.254
		c-0.084-0.174-0.14-2.613-0.14-7.027c0-6.104,0.028-6.785,0.238-7.012s0.743-0.24,11.144-0.24c7.261,0,11.017,0.04,11.201,0.134
		c0.251,0.133,0.265,0.359,0.265,7.107C26.494,25.291,26.453,27.051,26.326,27.172z"/>
</g>
</svg>
