<svg xmlns="http://www.w3.org/2000/svg" x="0px" y="0px" style="display:none">	 
	 <defs>
		 <symbol id="two-bubbles" viewBox="0 0 42.686 30.001">
			<path d="M41.29,6.111c0.264,0.389,0.777,1.67,0.846,1.902
				c0.211,0.732,0.658,2.132,0.527,3.489c-0.369,3.821-3.521,6.506-6.023,7.926c-0.061,1.223,0.527,5.533,0.527,6.025
				c-0.75-0.199-3.557-2.656-4.543-3.594c-0.414-0.391-0.875-0.986-1.375-0.951c-1.701,0.117-3.752,0.123-4.016,0.107
				c-5.789-0.391-11.386-4.178-11.946-9.41c-0.046-0.425-0.032-0.925,0-1.374c0.41-5.957,6.662-9.715,13.424-9.83
				c1.336-0.139,2.744,0.056,4.016,0.317c1.287,0.305,3.328,1.06,4.824,1.874C40.055,4.104,41.014,5.703,41.29,6.111z M16.239,16.469
				c-0.936-1.121-1.58-2.815-1.797-4.228c-5.77-2.112-13.013,0.536-14.27,5.39c-0.721,2.783,0.969,5.328,2.219,6.447
				c0.547,0.492,1.902,0.924,2.114,1.693c0.12,0.432-0.14,1.416-0.212,2.006C4.193,28.59,3.903,29.307,4.188,30
				c0.529,0.029,1.851-1.246,2.219-1.588c0.605-0.559,1.211-1.635,2.01-1.797c0.832-0.168,1.848,0.146,2.537,0.107
				c4.606-0.264,8.3-2.605,9.195-6.873C19.003,19.309,17.239,17.67,16.239,16.469z M28.258,0"/>
		</symbol>
		
		<symbol id="add" viewBox="0 0 30 30">
			<path d="M17.369,12.63V2.272c0.004-1.252-1.019-2.274-2.271-2.271l-0.195-0.003
			c-1.248-0.002-2.272,1.022-2.274,2.275l0.002,10.354L2.275,12.63c-1.248-0.002-2.273,1.021-2.271,2.273L0,15.101
			c0,1.248,1.025,2.271,2.273,2.271h10.358l-0.002,10.352c0.004,1.256,1.024,2.274,2.272,2.279h0.199
			c1.246-0.002,2.271-1.027,2.271-2.271l-0.002-10.361l10.358,0.006C28.978,17.369,30,16.349,30,15.101v-0.197
			c-0.002-1.252-1.022-2.271-2.274-2.275L17.369,12.63z"/>
		</symbol>
		
		<symbol id="remove" viewBox="0 0 29.996 4.746">
			<path d="M2.274,0.001C1.026,0,0.002,1.023,0.002,2.273L0,2.471c0,1.25,1.024,2.273,2.272,2.273l25.451,0.002
			c1.25-0.006,2.272-1.027,2.272-2.273V2.274C29.992,1.022,28.974,0.004,27.722,0L2.274,0.001z"/>
		</symbol>
		
		<symbol id="save" viewBox="0 0 30 30">
			<path d="M16.711,1.358c-0.268,0.254-0.24,6.947,0.026,7.16c0.127,0.106,0.729,0.146,1.78,0.121l1.598-0.041V4.932V1.264
			l-1.612-0.039C17.368,1.199,16.836,1.239,16.711,1.358z"/>
			<path d="M29.999,15.973V3.266l-1.654-1.561c-1.892-1.76-1.892-1.76-4.095-1.68l-1.19,0.041l-0.041,4.918
				c-0.015,3.361-0.087,4.975-0.183,5.107c-0.128,0.133-1.586,0.174-7.71,0.174c-6.658,0-7.555-0.026-7.752-0.213
				C7.177,9.879,7.15,9.225,7.15,4.919V0L4.598,0.014C3.182,0.026,1.852,0.067,1.612,0.12C0.94,0.281,0.575,0.559,0.281,1.147
				C0,1.667,0,2.014,0,15.041c0,14.625-0.043,13.893,0.828,14.6L1.29,30h13.681c13.331,0,13.709-0.014,14.144-0.268
				C30.055,29.199,29.999,29.998,29.999,15.973z M26.326,27.172c-0.127,0.119-2.819,0.16-11.284,0.16c-10.836,0-11.116,0-11.256-0.254
				c-0.084-0.174-0.14-2.613-0.14-7.027c0-6.104,0.028-6.785,0.238-7.012s0.743-0.24,11.144-0.24c7.261,0,11.017,0.04,11.201,0.134
				c0.251,0.133,0.265,0.359,0.265,7.107C26.494,25.291,26.453,27.051,26.326,27.172z"/>
		</symbol>
		
	</defs>
</svg>





