<?xml version="1.0" encoding="utf-8"?>
<!-- Generator: Adobe Illustrator 14.0.0, SVG Export Plug-In . SVG Version: 6.00 Build 43363)  -->
<!DOCTYPE svg PUBLIC "-//W3C//DTD SVG 1.1//EN" "http://www.w3.org/Graphics/SVG/1.1/DTD/svg11.dtd">
<svg version="1.1" id="Layer_1" xmlns="http://www.w3.org/2000/svg" xmlns:xlink="http://www.w3.org/1999/xlink" x="0px" y="0px"
	 width="42.917px" height="11.998px" viewBox="0 0 42.917 11.998" enable-background="new 0 0 42.917 11.998" xml:space="preserve">
<path opacity="0.25" fill="#333333" enable-background="new    " d="M6.567,0C3.254,0,0.568,2.686,0.568,5.999
	c0,3.312,2.686,5.999,5.999,5.999c3.312,0,6-2.687,6-5.999C12.567,2.686,9.881,0,6.567,0 M6.567,1.5c2.484,0,4.5,2.015,4.5,4.5
	c0,2.485-2.016,4.5-4.5,4.5c-2.485,0-4.499-2.017-4.499-4.501C2.068,3.514,4.083,1.5,6.567,1.5"/>
<path fill="#333333" d="M6.567,0c3.312,0,6,2.686,6,5.999h-1.5c0-2.485-2.016-4.5-4.5-4.5V0z">
<animateTransform  type="rotate" fill="remove" calcMode="linear" accumulate="none" additive="replace" repeatCount="indefinite" attributeName="transform" dur="0.8s" restart="always" from="0 6 6" to="360 6 6">
		</animateTransform>
</path>
<path fill="#CCCCCC" d="M42.523,0.729l-0.067-0.048c-0.429-0.304-1.036-0.212-1.351,0.201l-6.103,8.056l-1.201-1.229
	c-0.392-0.402-1.06-0.428-1.481-0.061l-0.066,0.059c-0.424,0.367-0.45,0.999-0.059,1.401l2.039,2.091
	c0.162,0.167,0.377,0.253,0.599,0.288c0.002,0.002,0.004,0.002,0.007,0.002c0.085,0.015,0.167,0.016,0.255,0.009
	c0.072-0.002,0.142-0.011,0.212-0.029c0.036-0.011,0.071-0.022,0.107-0.037c0.09-0.034,0.17-0.08,0.244-0.142
	c0.019-0.015,0.043-0.019,0.06-0.032l0.065-0.061c0.018-0.015,0.023-0.035,0.039-0.051c0.004-0.006,0.011-0.008,0.016-0.014
	l6.895-9.1C43.046,1.619,42.951,1.032,42.523,0.729z"/>
<path fill="#CCCCCC" d="M23.478,6.001l3.553-3.553c0.429-0.428,0.429-1.129,0-1.558l-0.067-0.068c-0.427-0.429-1.13-0.429-1.56,0
	l-3.551,3.553l-3.553-3.552c-0.428-0.429-1.13-0.429-1.559,0L16.673,0.89c-0.429,0.429-0.429,1.131,0,1.559l3.553,3.552
	l-3.552,3.551c-0.429,0.431-0.429,1.131-0.001,1.56l0.068,0.069c0.428,0.428,1.13,0.428,1.558,0l3.553-3.554l3.551,3.554
	c0.43,0.428,1.131,0.428,1.559,0l0.068-0.069c0.429-0.429,0.428-1.129,0-1.56L23.478,6.001z"/>
</svg>
